# xmcd
#
# Track frame offsets:
#	150
#	86373
#	114377
#	160717
#
# Disc length: 2564 seconds
#
# Revision: 0
# Processed by: cddbd v1.5.2PL0 Copyright (c) Steve Scherf et al.
# Submitted via: audiograbber 1.83.01
#
DISCID=200a0204
DTITLE=Grateful Dead - 93-12-09 Los Angeles Sports Arena, Los Angeles CA
DYEAR=1900
DGENRE=
TTITLE0=Space
TTITLE1=The Other One
TTITLE2=Wharf Rat
TTITLE3=Turn On Your Lovelight
EXTD=
EXTT0=
EXTT1=
EXTT2=
EXTT3=
PLAYORDER=
